<svg width="30" height="41" viewBox="0 0 30 41" fill="none" xmlns="http://www.w3.org/2000/svg">
<path d="M0 41V0H30V41L15 25.8947L0 41Z" fill="#008357"/>
<path d="M14.0489 6.92705C14.3483 6.00574 15.6517 6.00574 15.9511 6.92705L17.0206 10.2188C17.1545 10.6309 17.5385 10.9098 17.9717 10.9098H21.4329C22.4016 10.9098 22.8044 12.1494 22.0207 12.7188L19.2205 14.7533C18.87 15.0079 18.7234 15.4593 18.8572 15.8713L19.9268 19.1631C20.2261 20.0844 19.1717 20.8506 18.388 20.2812L15.5878 18.2467C15.2373 17.9921 14.7627 17.9921 14.4122 18.2467L11.612 20.2812C10.8283 20.8506 9.77385 20.0844 10.0732 19.1631L11.1428 15.8713C11.2766 15.4593 11.13 15.0079 10.7795 14.7533L7.97933 12.7188C7.19562 12.1494 7.59839 10.9098 8.56712 10.9098H12.0283C12.4615 10.9098 12.8455 10.6309 12.9794 10.2188L14.0489 6.92705Z" fill="white"/>
</svg>
