<svg width="22" height="22" viewBox="0 0 22 22" fill="none" xmlns="http://www.w3.org/2000/svg">
<g clip-path="url(#clip0_81_316)">
<path d="M5.51284 7.33895C5.61758 6.51053 6.69421 5.38463 7.54864 5.50956L7.54728 5.5082C8.3788 5.66621 9.03704 7.09739 9.40821 7.74093C9.6712 8.20785 9.50043 8.68092 9.25513 8.88055C8.92421 9.14726 8.40674 9.51527 8.51531 9.88478C8.70833 10.5417 11 12.8333 12.1271 13.4848C12.5538 13.7314 12.8631 13.081 13.1273 12.7478C13.3193 12.4915 13.7927 12.3383 14.2586 12.5913C14.9543 12.9965 15.6097 13.4674 16.2158 13.9975C16.5185 14.2505 16.5896 14.6244 16.3798 15.0196C16.0104 15.7156 14.9419 16.6335 14.1664 16.4469C12.8117 16.1212 7.33333 13.9975 5.57364 7.84484C5.47467 7.55377 5.49959 7.44374 5.51284 7.33895Z" fill="#FAB66A"/>
<path fill-rule="evenodd" clip-rule="evenodd" d="M10.9998 21.0832C9.8782 21.0832 9.25762 20.9628 8.24984 20.6248L6.31973 21.5899C5.10074 22.1994 3.6665 21.313 3.6665 19.9501V17.8748C1.69251 16.0342 0.916504 13.9118 0.916504 10.9998C0.916504 5.43097 5.43097 0.916504 10.9998 0.916504C16.5687 0.916504 21.0832 5.43097 21.0832 10.9998C21.0832 16.5687 16.5687 21.0832 10.9998 21.0832ZM5.49984 17.0776L4.91679 16.5339C3.38313 15.1039 2.74984 13.5052 2.74984 10.9998C2.74984 6.44349 6.44349 2.74984 10.9998 2.74984C15.5562 2.74984 19.2498 6.44349 19.2498 10.9998C19.2498 15.5562 15.5562 19.2498 10.9998 19.2498C10.0963 19.2498 9.6725 19.1683 8.83279 18.8867L8.11093 18.6446L5.49984 19.9501V17.0776Z" fill="#FAB66A"/>
</g>
<defs>
<clipPath id="clip0_81_316">
<rect width="22" height="22" fill="white"/>
</clipPath>
</defs>
</svg>
